<svg xmlns="http://www.w3.org/2000/svg" viewBox="0 0 24 24" id="louis-vuitton"><path d="M20.87 24H.719a.503.503 0 0 1-.466-.681l.507-1.304a.5.5 0 0 1 .466-.319c3.432 0 3.644-.693 3.651-.832a.458.458 0 0 1 .032-.151l2.409-6.321L2.102 3.486c-.255-.501-.399-.782-1.602-.782a.5.5 0 0 1-.5-.5V.5A.5.5 0 0 1 .5 0h7a.5.5 0 0 1 .5.5v1.924a.5.5 0 0 1-.5.5c-.51 0-.771.047-.897.084.024.04.06.092.113.157a.487.487 0 0 1 .064.102l2.593 5.489 1.166-3.194c.016-.072.003-.125-.003-.133-.001-.001-.131-.158-.84-.158a.501.501 0 0 1-.468-.675l.478-1.271A.498.498 0 0 1 10.173 3h7.152a.501.501 0 0 1 .464.686l-.522 1.299a.5.5 0 0 1-.464.313c-.857 0-1.92.112-2.121.645l-3.227 8.337 1.201 2.166 6.082-13.155c.242-.541.175-.671.167-.684-.017-.023-.19-.237-1.405-.237a.5.5 0 0 1-.5-.5V.5a.5.5 0 0 1 .5-.5h6a.5.5 0 0 1 .5.5v1.784a.5.5 0 0 1-.5.5c-1.159 0-1.481.373-1.765 1.209l-7.233 15.716a.499.499 0 0 1-.454.291h-2.557a.5.5 0 0 1-.368-.162l-.608-.662L9.771 21h8.168c1.316 0 2.182-.935 3.43-3.706a.498.498 0 0 1 .455-.294h1.917a.5.5 0 0 1 .451.715l-2.872 6a.497.497 0 0 1-.45.285zM1.45 23h19.105l2.393-5h-.802c-1.173 2.539-2.268 4-4.207 4H9.026a.5.5 0 0 1-.463-.689l1.324-3.243a.499.499 0 0 1 .832-.149L11.711 19h2.017l7.08-15.377C21.19 2.485 21.845 1.925 23 1.808V1h-5v.383c.94.052 1.473.264 1.744.682.335.518.125 1.148-.095 1.64l-.002.005-6.497 14.051a.5.5 0 0 1-.436.29.482.482 0 0 1-.456-.257l-1.792-3.232a.498.498 0 0 1-.029-.423l3.31-8.551c.304-.807 1.194-1.229 2.715-1.282L16.586 4H10.52l-.123.326c.431.077.732.238.928.49.149.192.299.528.168 1.042l-1.591 4.366a.5.5 0 0 1-.447.328c-.205.025-.389-.104-.475-.286L5.901 3.748c-.164-.207-.504-.688-.271-1.178.213-.446.767-.59 1.37-.631V1H1v.722c1.154.093 1.599.537 1.998 1.321l5.314 11.11a.5.5 0 0 1 .016.394l-2.46 6.457c-.165 1.425-2.434 1.666-4.3 1.689L1.45 23zM19.192 3.5h.01-.01z"></path></svg>